/* XPM */
static char *result[] = {
/* columns rows colors chars-per-pixel */
"64 64 16 1 ",
"  c black",
". c #060606",
"X c #090909",
"o c gray14",
"O c #2D2D2D",
"+ c #A94C6D",
"@ c #198E00",
"# c #2FCE0D",
"$ c #DEDE0F",
"% c #D28A50",
"& c #E8B35C",
"* c #FFFF54",
"= c #FFEE6D",
"- c #FFF189",
"; c #FFD0ED",
": c white",
/* pixels */
"****@@@@**$$**@@@@$$$$**@@@@@@****@@@@**@@****@@@@@@@@****@@@@@@",
"****@@@@**$$**@@@@$$$$**@@@@@@****@@@@**@@****@@@@@@@@****@@@@@@",
"**@@@@@@$$$$@@@@@@##@@@@@@@@$$    @@**@@@@$$@@@@@@    $$@@@@**@@",
"**@@@@@@$$$$@@@@@@##@@@@@@@@$$    @@**@@@@$$@@@@@@    $$@@@@**@@",
"$$@@**##@@$$@@##**@@@@@@@@##  oo    ##@@@@@@@@##  OO  @@##**$$@@",
"$$@@**##@@$$@@##**@@@@@@@@##  oo    ##@@@@@@@@##  OO  @@##**$$@@",
"$$@@@@@@$$$$@@@@**@@****##  oo  oo  @@####**##  OO  @@##**@@@@@@",
"$$@@@@@@$$$$@@@@**@@****##  oo  oo  @@####**##  OO  @@##**@@@@@@",
"@@@@**@@@@****@@@@**$$@@  XX  oo    @@##**##  OO      ##@@@@##**",
"@@@@**@@@@****@@@@**$$@@  XX  oo    @@##**##  OO      ##@@@@##**",
"@@@@**@@**$$##@@****@@  --  OO  oo  @@@@@@  OO  OOoo  @@@@##**@@",
"@@@@**@@**$$##@@****@@  --  OO  oo  @@@@@@  OO  OOoo  @@@@##**@@",
"@@**$$@@@@##@@@@**@@  ..  ==  XX    ****  OO  OOoo  $$@@##****@@",
"@@**$$@@@@##@@@@**@@  ..  ==  XX    ****  OO  OOoo  $$@@##****@@",
"@@####@@##      ##  ..  ..  &&  oo  ##  XX  OOoo    @@@@##@@@@**",
"@@####@@##      ##  ..  ..  &&  oo  ##  XX  OOoo    @@@@##@@@@**",
"****@@##  --..            XX  oo  oo  ..  XXoo  OO  @@@@@@@@$$$$",
"****@@##  --..            XX  oo  oo  ..  XXoo  OO  @@@@@@@@$$$$",
"**@@@@  ==XXXX..    ==  ==  XX  XX      ....  OO  OO  @@##****@@",
"**@@@@  ==XXXX..    ==  ==  XX  XX      ....  OO  OO  @@##****@@",
"####@@  XX  ::XX==  %%  %%    oo  %%  --    XX  OOoo  $$$$@@@@##",
"####@@  XX  ::XX==  %%  %%    oo  %%  --    XX  OOoo  $$$$@@@@##",
"$$$$  ++XXXXXX==--==  %%        &&==  --  XX  OOXX  @@@@@@@@****",
"$$$$  ++XXXXXX==--==  %%        &&==  --  XX  OOXX  @@@@@@@@****",
"$$  ;;    ======--==    ==&&  &&--  &&==    XXOO  OO  @@@@##**@@",
"$$  ;;    ======--==    ==&&  &&--  &&==    XXOO  OO  @@@@##**@@",
"$$    @@@@  ==&&----==  &&  &&==  &&==  ==  OO  OOoo  @@@@@@@@@@",
"$$    @@@@  ==&&----==  &&  &&==  &&==  ==  OO  OOoo  @@@@@@@@@@",
"@@##@@**@@  %%==--====&&  &&--  &&==  --&&    OOXX  @@@@@@$$**@@",
"@@##@@**@@  %%==--====&&  &&--  &&==  --&&    OOXX  @@@@@@$$**@@",
"@@@@**@@@@##  ======&&  &&==  &&--  ==&&  ==%%    oo  @@**$$@@##",
"@@@@**@@@@##  ======&&  &&==  &&--  ==&&  ==%%    oo  @@**$$@@##",
"@@@@$$@@##@@  ==&&==%%  ==  &&==  --&&  --&&  OOXX  @@##    @@@@",
"@@@@$$@@##@@  ==&&==%%  ==  &&==  --&&  --&&  OOXX  @@##    @@@@",
"@@**$$@@##@@======&&  --  &&--  ==&&  ==    @@    ##@@  XX  ****",
"@@**$$@@##@@======&&  --  &&--  ==&&  ==    @@    ##@@  XX  ****",
"@@$$@@####  ------==  ==&&==  ==        @@@@**$$##**  ..  XX  @@",
"@@$$@@####  ------==  ==&&==  ==        @@@@**$$##**  ..  XX  @@",
"@@@@@@##@@  ==--======%%==  &&  %%&&==      $$      ..  XX    $$",
"@@@@@@##@@  ==--======%%==  &&  %%&&==      $$      ..  XX    $$",
"@@****##@@  &&==&&======&&====%%&&====----    ==--    ..  XX  @@",
"@@****##@@  &&==&&======&&====%%&&====----    ==--    ..  XX  @@",
"@@$$$$##@@  %%&&==========&&========----======&&  ..XX  XX  @@@@",
"@@$$$$##@@  %%&&==========&&========----======&&  ..XX  XX  @@@@",
"@@$$##@@**$$  %%&&%%==  ======--==&&======&&%%        ..  @@@@@@",
"@@$$##@@**$$  %%&&%%==  ======--==&&======&&%%        ..  @@@@@@",
"@@@@****$$####  %%&&%%%%  ==--==&&&&                    @@@@****",
"@@@@****$$####  %%&&%%%%  ==--==&&&&                    @@@@****",
"@@@@@@@@@@@@@@$$          ====&&%%  @@##@@##@@@@@@**$$@@@@##$$@@",
"@@@@@@@@@@@@@@$$          ====&&%%  @@##@@##@@@@@@**$$@@@@##$$@@",
"@@****##@@@@@@**@@@@##  %%  %%%%  @@@@@@##@@@@@@**$$@@@@**@@@@@@",
"@@****##@@@@@@**@@@@##  %%  %%%%  @@@@@@##@@@@@@**$$@@@@**@@@@@@",
"##**##@@@@##**@@@@##@@@@  &&    $$@@##****@@@@##**@@@@**$$@@@@##",
"##**##@@@@##**@@@@##@@@@  &&    $$@@##****@@@@##**@@@@**$$@@@@##",
"@@@@@@**$$@@@@**$$@@@@****        ##****@@@@**@@##@@@@$$@@@@****",
"@@@@@@**$$@@@@**$$@@@@****        ##****@@@@**@@##@@@@$$@@@@****",
"@@@@$$$$$$@@**$$@@@@@@**  ######  **@@##$$$$$$##@@@@##@@@@@@##$$",
"@@@@$$$$$$@@**$$@@@@@@**  ######  **@@##$$$$$$##@@@@##@@@@@@##$$",
"@@**$$@@@@@@####@@**@@  ####**##  @@****$$####@@@@##**@@@@@@**$$",
"@@**$$@@@@@@####@@**@@  ####**##  @@****$$####@@@@##**@@@@@@**$$",
"@@@@@@$$$$@@@@**      ##@@      ####$$@@##@@**@@@@**$$@@**$$@@@@",
"@@@@@@$$$$@@@@**      ##@@      ####$$@@##@@**@@@@**$$@@**$$@@@@",
"@@**$$$$@@@@@@  @@  ##@@  $$  **  $$@@@@@@**@@@@@@@@@@$$$$$$@@@@",
"@@**$$$$@@@@@@  @@  ##@@  $$  **  $$@@@@@@**@@@@@@@@@@$$$$$$@@@@"
};
