/* XPM */
static char *result[] = {
/* columns rows colors chars-per-pixel */
"64 64 17 1 ",
"  c black",
". c #0E5F09",
"X c #11760B",
"o c gray33",
"O c #5D5D5D",
"+ c gray40",
"@ c gray50",
"# c #198E00",
"$ c #2FCE0D",
"% c #9B9F0B",
"& c #B9A400",
"* c #C8B30F",
"= c #C8CE0B",
"- c #DEDE0F",
"; c #FFFF54",
": c #979595",
"> c #A5A2A2",
/* pixels */
";;;;####;;--;;####----;;######;;;;####;;##;;;;########;;;;######",
";;;;####;;--;;####----;;######;;;;####;;##;;;;########;;;;######",
";;######----######$$########----####;;####--######;;##--####;;##",
";;######----######$$########----####;;####--######;;##--####;;##",
"--##;;$$          ########$$$$####$$$$########          $$;;--##",
"--##;;$$          ########$$$$####$$$$########          $$;;--##",
"--######  oooo@@          ######$$$$##          ++oooo  ;;######",
"--######  oooo@@          ######$$$$##          ++oooo  ;;######",
"####;;##    oo++@@  ****                ****  ++@@++    ####$$;;",
"####;;##    oo++@@  ****                ****  ++@@++    ####$$;;",
"####;;##;;    oo@@@@**==++@@@@@@oooooo++==%%++@@oo    ####$$;;##",
"####;;##;;    oo@@@@**==++@@@@@@oooooo++==%%++@@oo    ####$$;;##",
"##;;--####$$    ++@@@@**==++@@@@@@++++==**@@@@oo    --##$$;;;;##",
"##;;--####$$    ++@@@@**==++@@@@@@++++==**@@@@oo    --##$$;;;;##",
"##$$$$##$$--##    oo@@++%%%%        ****@@@@++    --####$$####;;",
"##$$$$##$$--##    oo@@++%%%%        ****@@@@++    --####$$####;;",
";;;;##$$--;;      oo++oo&&==******==%%  ++oooo      ########----",
";;;;##$$--;;      oo++oo&&==******==%%  ++oooo      ########----",
";;##########  ++::::::::&&::**====%%&&::::::::::++  ####$$;;;;##",
";;##########  ++::::::::&&::**====%%&&::::::::::++  ####$$;;;;##",
"$$$$##;;----  oo++@@++++&&++&&++&&@@&&++@@@@@@++oo  ;;----####$$",
"$$$$##;;----  oo++@@++++&&++&&++&&@@&&++@@@@@@++oo  ;;----####$$",
"----;;--####      oooo++&&  &&  &&  >>  ++@@@@      ########;;;;",
"----;;--####      oooo++&&  &&  &&  >>  ++@@@@      ########;;;;",
"--##;;######;;$$  ++oooo>>##&&;;>>$$##  ++@@XX  ####;;####$$;;##",
"--##;;######;;$$  ++oooo>>##&&;;>>$$##  ++@@XX  ####;;####$$;;##",
"--$$$$########;;  @@++oo  -->>$$######  ooOOXX  ##;;--##########",
"--$$$$########;;  @@++oo  -->>$$######  ooOOXX  ##;;--##########",
"##$$##;;##$$----  XX++++  --####$$$$##  @@XXXX  ;;--######--;;##",
"##$$##;;##$$----  XX++++  --####$$$$##  @@XXXX  ;;--######--;;##",
"####;;####$$--##  XX@@++  ######$$;;--  XXXX..  $$######;;--##$$",
"####;;####$$--##  XX@@++  ######$$;;--  XXXX..  $$######;;--##$$",
"####--##$$######  XXXX@@  ;;;;;;######  XXXX++  ######$$;;######",
"####--##$$######  XXXX@@  ;;;;;;######  XXXX++  ######$$;;######",
"##;;--##$$##;;##  ++XX++  ;;$$##;;;;;;  XXXX++  ##$$##;;####;;;;",
"##;;--##$$##;;##  ++XX++  ;;$$##;;;;;;  XXXX++  ##$$##;;####;;;;",
"##--##$$$$;;;;    ++XX++    ##;;####    XX....    ;;;;####;;;;##",
"##--##$$$$;;;;    ++XX++    ##;;####    XX....    ;;;;####;;;;##",
"######$$######  ......XXXX  $$$$##--  ..........  ####;;$$##----",
"######$$######  ......XXXX  $$$$##--  ..........  ####;;$$##----",
"##;;;;$$######  ........XX  ######$$  ....++++..  ##;;--##;;--##",
"##;;;;$$######  ........XX  ######$$  ....++++..  ##;;--##;;--##",
"##----$$##;;##              ----$$$$              ;;######$$####",
"##----$$##;;##              ----$$$$              ;;######$$####",
"##--$$##;;--$$$$##;;$$$$####--####;;;;##$$##;;$$########$$######",
"##--$$##;;--$$$$##;;$$$$####--####;;;;##$$##;;$$########$$######",
"####;;;;--$$$$----;;$$##;;;;######$$$$$$------######;;;;####;;;;",
"####;;;;--$$$$----;;$$##;;;;######$$$$$$------######;;;;####;;;;",
"##############--####;;----####$$$$$$##$$##$$######;;--####$$--##",
"##############--####;;----####$$$$$$##$$##$$######;;--####$$--##",
"##;;;;$$######;;####$$######$$$$--######$$######;;--####;;######",
"##;;;;$$######;;####$$######$$$$--######$$######;;--####;;######",
"$$;;$$####$$;;####$$######;;--;;--##$$;;;;####$$;;####;;--####$$",
"$$;;$$####$$;;####$$######;;--;;--##$$;;;;####$$;;####;;--####$$",
"######;;--####;;--####;;;;##;;##$$$$;;;;####;;##$$####--####;;;;",
"######;;--####;;--####;;;;##;;##$$$$;;;;####;;##$$####--####;;;;",
"####------##;;--######;;##$$$$$$##;;##$$------$$####$$######$$--",
"####------##;;--######;;##$$$$$$##;;##$$------$$####$$######$$--",
"##;;--######$$$$##;;####$$$$;;$$####;;;;--$$$$####$$;;######;;--",
"##;;--######$$$$##;;####$$$$;;$$####;;;;--$$$$####$$;;######;;--",
"######----####;;;;;;##$$##;;--##$$$$--##$$##;;####;;--##;;--####",
"######----####;;;;;;##$$##;;--##$$$$--##$$##;;####;;--##;;--####",
"##;;----######;;##$$$$##;;----;;----######;;##########------####",
"##;;----######;;##$$$$##;;----;;----######;;##########------####"
};
