/* XPM */
static char *result[] = {
/* columns rows colors chars-per-pixel */
"64 64 30 1 ",
"  c black",
". c #021215",
"X c #270202",
"o c #2F0C02",
"O c #291616",
"+ c #291F1D",
"@ c #03200E",
"# c #042F15",
"$ c #131734",
"% c #362C26",
"& c #4B1404",
"* c #611904",
"= c #453226",
"- c #563F30",
"; c #1C344B",
": c #273869",
"> c #2F567C",
", c #A1704F",
"< c #198E00",
"1 c #2FCE0D",
"2 c #DEDE0F",
"3 c #D2B367",
"4 c #D6B76C",
"5 c #DDAB74",
"6 c #D4AA7B",
"7 c #FFFF54",
"8 c #EACA7A",
"9 c #ECCB7A",
"0 c #909090",
"q c #B2B2B2",
/* pixels */
"7777<<<<772277<<<<22                <<77<<7777<<<<<<<<7777<<<<<<",
"7777<<<<772277<<<<22                <<77<<7777<<<<<<<<7777<<<<<<",
"77<<<<<<2222<<<<<<  44  ,,,,,,,,,,88  <<<<22<<<<<<77<<22<<<<77<<",
"77<<<<<<2222<<<<<<  44  ,,,,,,,,,,88  <<<<22<<<<<<77<<22<<<<77<<",
"22<<7711<<22<<11  44  4444,,44,,,,,,88  <<<<<<1177<<<<<<117722<<",
"22<<7711<<22<<11  44  4444,,44,,,,,,88  <<<<<<1177<<<<<<117722<<",
"22<<<<<<2222<<  44  44,,4444,,44,,44  88  771177<<<<<<1177<<<<<<",
"22<<<<<<2222<<  44  44,,4444,,44,,44  88  771177<<<<<<1177<<<<<<",
"<<<<77<<<<7777      4444444444  4444444444  11<<77<<1111<<<<1177",
"<<<<77<<<<7777      4444444444  4444444444  11<<77<<1111<<<<1177",
"<<<<77<<772211  44,,  44,,44  88444444,,44  <<7722<<<<<<<<1177<<",
"<<<<77<<772211  44,,  44,,44  88444444,,44  <<7722<<<<<<<<1177<<",
"<<7722<<<<11<<  ,,44444444  88444444,,4444    22<<2222<<117777<<",
"<<7722<<<<11<<  ,,44444444  88444444,,4444    22<<2222<<117777<<",
"<<1111<<1122<<  4444449944,,  884444444488    <<7722<<<<11<<<<77",
"<<1111<<1122<<  4444449944,,  884444444488    <<7722<<<<11<<<<77",
"7777<<112277<<  884488,,99,,,,  8888,,4488    1111<<<<<<<<<<2222",
"7777<<112277<<  884488,,99,,,,  8888,,4488    1111<<<<<<<<<<2222",
"77<<<<<<<<<<22  ,,88,,  ,,44,,,,,,  8888,,  11<<<<<<<<<<117777<<",
"77<<<<<<<<<<22  ,,88,,  ,,44,,,,,,  8888,,  11<<<<<<<<<<117777<<",
"1111<<77222222<<  ,,  88,,,,44,,,,,,  ,,  <<<<777711772222<<<<11",
"1111<<77222222<<  ,,  88,,,,44,,,,,,  ,,  <<<<777711772222<<<<11",
"22227722<<<<7777<<  88,,,,,,,,,,,,,,,,  <<<<1177<<<<<<<<<<<<7777",
"22227722<<<<7777<<  88,,,,,,,,,,,,,,,,  <<<<1177<<<<<<<<<<<<7777",
"22<<77<<<<<<771111<<  88,,,,,,,,44    <<<<1177<<<<<<77<<<<1177<<",
"22<<77<<<<<<771111<<  88,,,,,,,,44    <<<<1177<<<<<<77<<<<1177<<",
"221111<<<<<<<<77<<<<              OO  77771177<<<<7722<<<<<<<<<<",
"221111<<<<<<<<77<<<<              OO  77771177<<<<7722<<<<<<<<<<",
"<<11<<77<<112222<<  OOOO  55ooXX  --OO  <<<<<<<<7722<<<<<<2277<<",
"<<11<<77<<112222<<  OOOO  55ooXX  --OO  <<<<<<<<7722<<<<<<2277<<",
"<<<<77<<<<1122<<  --==  99**&&$$99  ==    <<111111<<<<<<7722<<11",
"<<<<77<<<<1122<<  --==  99**&&$$99  ==    <<111111<<<<<<7722<<11",
"<<<<22<<11<<<<<<  OO  **&&;;      ;;  OO        <<<<<<1177<<<<<<",
"<<<<22<<11<<<<<<  OO  **&&;;      ;;  OO        <<<<<<1177<<<<<<",
"<<7722<<11<<77<<11    $$;;  9999    ++  qq  00  <<11<<77<<<<7777",
"<<7722<<11<<77<<11    $$;;  9999    ++  qq  00  <<11<<77<<<<7777",
"<<22<<111177771111  ++    33oo&&  %%      qq  22117777<<<<7777<<",
"<<22<<111177771111  ++    33oo&&  %%      qq  22117777<<<<7777<<",
"<<<<<<11<<<<<<2222    %%        $$  66  ::  2211<<<<<<7711<<2222",
"<<<<<<11<<<<<<2222    %%        $$  66  ::  2211<<<<<<7711<<2222",
"<<777711<<<<<<2277  66    $$;;$$  >>  qq  2211<<<<<<7722<<7722<<",
"<<777711<<<<<<2277  66    $$;;$$  >>  qq  2211<<<<<<7722<<7722<<",
"<<222211<<77<<7711<<    ..      ..  >>    117777<<77<<<<<<11<<<<",
"<<222211<<77<<7711<<    ..      ..  >>    117777<<77<<<<<<11<<<<",
"<<2211<<77221111<<77  ..##..  ..  qq    11<<7711<<<<<<<<11<<<<<<",
"<<2211<<77221111<<77  ..##..  ..  qq    11<<7711<<<<<<<<11<<<<<<",
"<<<<7777221111222277  ....##    ::  ##qq  2222<<<<<<7777<<<<7777",
"<<<<7777221111222277  ....##    ::  ##qq  2222<<<<<<7777<<<<7777",
"<<<<<<<<<<<<<<22<<<<  @@..@@  qq  ..    ::  <<<<<<7722<<<<1122<<",
"<<<<<<<<<<<<<<22<<<<  @@..@@  qq  ..    ::  <<<<<<7722<<<<1122<<",
"<<777711<<<<<<77<<<<11      qq      <<<<  qq  <<7722<<<<77<<<<<<",
"<<777711<<<<<<77<<<<11      qq      <<<<  qq  <<7722<<<<77<<<<<<",
"117711<<<<1177<<<<11<<  66    66  <<117777    1177<<<<7722<<<<11",
"117711<<<<1177<<<<11<<  66    66  <<117777    1177<<<<7722<<<<11",
"<<<<<<7722<<<<7722<<<<  4499449944  7777<<<<77<<11<<<<22<<<<7777",
"<<<<<<7722<<<<7722<<<<  4499449944  7777<<<<77<<11<<<<22<<<<7777",
"<<<<222222<<7722<<<<<<77  44  44  77<<1122222211<<<<11<<<<<<1122",
"<<<<222222<<7722<<<<<<77  44  44  77<<1122222211<<<<11<<<<<<1122",
"<<7722<<<<<<1111<<77<<<<11  77  <<<<7777221111<<<<1177<<<<<<7722",
"<<7722<<<<<<1111<<77<<<<11  77  <<<<7777221111<<<<1177<<<<<<7722",
"<<<<<<2222<<<<777777<<11<<7722<<111122<<11<<77<<<<7722<<7722<<<<",
"<<<<<<2222<<<<777777<<11<<7722<<111122<<11<<77<<<<7722<<7722<<<<",
"<<772222<<<<<<77<<1111<<772222772222<<<<<<77<<<<<<<<<<222222<<<<",
"<<772222<<<<<<77<<1111<<772222772222<<<<<<77<<<<<<<<<<222222<<<<"
};
