/* XPM */
static char *result[] = {
/* columns rows colors chars-per-pixel */
"64 64 33 1 ",
"  c black",
". c #090909",
"X c #021215",
"o c #181818",
"O c #2F0C02",
"+ c #291616",
"@ c #03200E",
"# c #042F15",
"$ c #131734",
"% c #252525",
"& c #2D2D2D",
"* c #362C26",
"= c #3E3E3E",
"- c #4B1404",
"; c #611904",
": c #453226",
"> c #1C344B",
", c #273869",
"< c #2F567C",
"1 c #676767",
"2 c #A1704F",
"3 c #198E00",
"4 c #2FCE0D",
"5 c #DEDE0F",
"6 c #BBA15F",
"7 c #BB8A6E",
"8 c #D2B367",
"9 c #D6B76C",
"0 c #D4AA7B",
"q c #FFFF54",
"w c #ECCB7A",
"e c #909090",
"r c #B2B2B2",
/* pixels */
"qqqq3333qq55qq333355                33qq33qqqq33333333qqqq333333",
"qqqq3333qq55qq333355                33qq33qqqq33333333qqqq333333",
"qq3333335555333333  999922992222  99  333355333333qq33553333qq33",
"qq3333335555333333  999922992222  99  333355333333qq33553333qq33",
"5533qq4433553344  9922              22  33333344qq33333344qq5533",
"5533qq4433553344  9922              22  33333344qq33333344qq5533",
"55333333555533  9922    ..  ........  99  qq44qq33333344qq333333",
"55333333555533  9922    ..  ........  99  qq44qq33333344qq333333",
"3333qq3333qqqq      ....  ........    9922  4433qq334444333344qq",
"3333qq3333qqqq      ....  ........    9922  4433qq334444333344qq",
"3333qq33qq5544  99  ....          ..    22  33qq553333333344qq33",
"3333qq33qq5544  99  ....          ..    22  33qq553333333344qq33",
"33qq5533334433      ..  ..777777..  ..    22  553355553344qqqq33",
"33qq5533334433      ..  ..777777..  ..    22  553355553344qqqq33",
"33444433445533  22    7777..77..7777  ..  99  33qq553333443333qq",
"33444433445533  22    7777..77..7777  ..  99  33qq553333443333qq",
"qqqq334455qq33      7777  777777  7777    99  444433333333335555",
"qqqq334455qq33      7777  777777  7777    99  444433333333335555",
"qq333333333355    77  00  77  77  00  77    44333333333344qqqq33",
"qq333333333355    77  00  77  77  00  77    44333333333344qqqq33",
"444433qq55555533    000000  oo  000000    3333qqqq44qq5555333344",
"444433qq55555533    000000  oo  000000    3333qqqq44qq5555333344",
"5555qq553333qqqq33    oo%%oo11oo%%oo    333344qq333333333333qqqq",
"5555qq553333qqqq33    oo%%oo11oo%%oo    333344qq333333333333qqqq",
"5533qq333333qq444433    %%&&==&&%%    333344qq333333qq333344qq33",
"5533qq333333qq444433    %%&&==&&%%    333344qq333333qq333344qq33",
"55444433333333qq3333  ++          ++  qqqq44qq3333qq553333333333",
"55444433333333qq3333  ++          ++  qqqq44qq3333qq553333333333",
"334433qq3344555533  ++::  OO--99  ::++  33333333qq5533333355qq33",
"334433qq3344555533  ++::  OO--99  ::++  33333333qq5533333355qq33",
"3333qq3333445533  ::::    >>;;--66  ::    33444444333333qq553344",
"3333qq3333445533  ::::    >>;;--66  ::    33444444333333qq553344",
"3333553344333333  ++  66  $$>>>>;;OO  ++  qq443333333344qq333333",
"3333553344333333  ++  66  $$>>>>;;OO  ++  qq443333333344qq333333",
"33qq55334433qq3344    OO--    $$    $$  qq5533qq334433qq3333qqqq",
"33qq55334433qq3344    OO--    $$    $$  qq5533qq334433qq3333qqqq",
"3355334444qqqq4444  **  OO  ee    rr    3333qq5544qqqq3333qqqq33",
"3355334444qqqq4444  **  OO  ee    rr    3333qq5544qqqq3333qqqq33",
"333333443333335555    **      rr    ,,  33qq5544333333qq44335555",
"333333443333335555    **      rr    ,,  33qq5544333333qq44335555",
"33qqqq4433333355qq  00    $$>>  ,,    <<  5544333333qq5533qq5533",
"33qqqq4433333355qq  00    $$>>  ,,    <<  5544333333qq5533qq5533",
"3355554433qq33qq4433    XX        rr      44qqqq33qq333333443333",
"3355554433qq33qq4433    XX        rr      44qqqq33qq333333443333",
"33554433qq55444433qq  XX##XX  ##XX  <<  4433qq443333333344333333",
"33554433qq55444433qq  XX##XX  ##XX  <<  4433qq443333333344333333",
"3333qqqq5544445555qq  ##XXXX  XX@@XX  rr  5555333333qqqq3333qqqq",
"3333qqqq5544445555qq  ##XXXX  XX@@XX  rr  5555333333qqqq3333qqqq",
"33333333333333553333  @@XX@@  @@XXXX    ,,  333333qq553333445533",
"33333333333333553333  @@XX@@  @@XXXX    ,,  333333qq553333445533",
"33qqqq44333333qq333344              3333  rr  33qq553333qq333333",
"33qqqq44333333qq333344              3333  rr  33qq553333qq333333",
"44qq44333344qq33334433    00  00  3344qqqq    44qq3333qq55333344",
"44qq44333344qq33334433    00  00  3344qqqq    44qq3333qq55333344",
"333333qq553333qq553333  88ww88ww88  qqqq3333qq33443333553333qqqq",
"333333qq553333qq553333  88ww88ww88  qqqq3333qq33443333553333qqqq",
"333355555533qq55333333qq  88  88  qq3344555555443333443333334455",
"333355555533qq55333333qq  88  88  qq3344555555443333443333334455",
"33qq55333333444433qq333344  qq  3333qqqq554444333344qq333333qq55",
"33qq55333333444433qq333344  qq  3333qqqq554444333344qq333333qq55",
"33333355553333qqqqqq334433qq5533444455334433qq3333qq5533qq553333",
"33333355553333qqqqqq334433qq5533444455334433qq3333qq5533qq553333",
"33qq5555333333qq33444433qq5555qq5555333333qq33333333335555553333",
"33qq5555333333qq33444433qq5555qq5555333333qq33333333335555553333"
};
