/* XPM */
static char *_2dd7fdaa38c4a439aaeef9c17227be3TE2csIECT8OC9B1P[] = {
/* columns rows colors chars-per-pixel */
"64 64 4 1 ",
"  c #198E00",
". c #2FCE0D",
"X c #DEDE0F",
"o c #FFFF54",
/* pixels */
"oooo    ooXXoo    XXXXoo      oooo    oo  oooo        oooo      ",
"oooo    ooXXoo    XXXXoo      oooo    oo  oooo        oooo      ",
"oo      XXXX      ..        XXXX    oo    XX      oo  XX    oo  ",
"oo      XXXX      ..        XXXX    oo    XX      oo  XX    oo  ",
"XX  oo..  XX  ..oo        ....    ....        ..oo      ..ooXX  ",
"XX  oo..  XX  ..oo        ....    ....        ..oo      ..ooXX  ",
"XX      XXXX    oo  oooo..      ....  ....oo..oo      ..oo      ",
"XX      XXXX    oo  oooo..      ....  ....oo..oo      ..oo      ",
"    oo    oooo    ooXX          ooXX  ..oo....  oo  ....    ..oo",
"    oo    oooo    ooXX          ooXX  ..oo....  oo  ....    ..oo",
"    oo  ooXX..  oooo    oooo  ooXX            ooXX        ..oo  ",
"    oo  ooXX..  oooo    oooo  ooXX            ooXX        ..oo  ",
"  ooXX    ..    oo  ..ooXX    XX    oooo  XXXXXX  XXXX  ..oooo  ",
"  ooXX    ..    oo  ..ooXX    XX    oooo  XXXXXX  XXXX  ..oooo  ",
"  ....  ..XX  oo..XX..      ..    oo..          ooXX    ..    oo",
"  ....  ..XX  oo..XX..      ..    oo..          ooXX    ..    oo",
"oooo  ..XXoo  ..XXoo..    ..XX....        XXXX....          XXXX",
"oooo  ..XXoo  ..XXoo..    ..XX....        XXXX....          XXXX",
"oo          XXXX....    ..XX..ooXX    oo..oo..          ..oooo  ",
"oo          XXXX....    ..XX..ooXX    oo..oo..          ..oooo  ",
"....  ooXXXXXX            ooooXXXX    oo      oooo..ooXXXX    ..",
"....  ooXXXXXX            ooooXXXX    oo      oooo..ooXXXX    ..",
"XXXXooXX    oooo  ..    ..    oooooo..      ..oo            oooo",
"XXXXooXX    oooo  ..    ..    oooooo..      ..oo            oooo",
"XX  oo      oo....  XXXXoo    oo  ..      ..oo      oo    ..oo  ",
"XX  oo      oo....  XXXXoo    oo  ..      ..oo      oo    ..oo  ",
"XX....        oo    oo    XXoo..      oooo..oo    ooXX          ",
"XX....        oo    oo    XXoo..      oooo..oo    ooXX          ",
"  ..  oo  ..XXXX        ooXX    ....  ..        ooXX      XXoo  ",
"  ..  oo  ..XXXX        ooXX    ....  ..        ooXX      XXoo  ",
"    oo    ..XX    ..XX          ..ooXXoo    ......      ooXX  ..",
"    oo    ..XX    ..XX          ..ooXXoo    ......      ooXX  ..",
"    XX  ..      ooXXXXoo  oooooo          oo..        ..oo      ",
"    XX  ..      ooXXXXoo  oooooo          oo..        ..oo      ",
"  ooXX  ..  oo  ..  XXoo  oo..  oooooo  ooXX  oo  ..  oo    oooo",
"  ooXX  ..  oo  ..  XXoo  oo..  oooooo  ooXX  oo  ..  oo    oooo",
"  XX  ....oooo....      ..XX  oo    XXXX    ooXX..oooo    oooo  ",
"  XX  ....oooo....      ..XX  oo    XXXX    ooXX..oooo    oooo  ",
"      ..      XXXXoo  ..XXXX....  XXXX    ooXX..      oo..  XXXX",
"      ..      XXXXoo  ..XXXX....  XXXX    ooXX..      oo..  XXXX",
"  oooo..      XXoo    ooXX        ..      XX..      ooXX  ooXX  ",
"  oooo..      XXoo    ooXX        ..      XX..      ooXX  ooXX  ",
"  XXXX..  oo  oo..          XXXX....oooo  ..oooo  oo      ..    ",
"  XXXX..  oo  oo..          XXXX....oooo  ..oooo  oo      ..    ",
"  XX..  ooXX....  oo....    XX    oooo  ..  oo..        ..      ",
"  XX..  ooXX....  oo....    XX    oooo  ..  oo..        ..      ",
"    ooooXX....XXXXoo..  oooo      ......XXXXXX      oooo    oooo",
"    ooooXX....XXXXoo..  oooo      ......XXXXXX      oooo    oooo",
"              XX    ooXXXX    ......  ..  ..      ooXX    ..XX  ",
"              XX    ooXXXX    ......  ..  ..      ooXX    ..XX  ",
"  oooo..      oo    ..      ....XX      ..      ooXX    oo      ",
"  oooo..      oo    ..      ....XX      ..      ooXX    oo      ",
"..oo..    ..oo    ..      ooXXooXX  ..oooo    ..oo    ooXX    ..",
"..oo..    ..oo    ..      ooXXooXX  ..oooo    ..oo    ooXX    ..",
"      ooXX    ooXX    oooo  oo  ....oooo    oo  ..    XX    oooo",
"      ooXX    ooXX    oooo  oo  ....oooo    oo  ..    XX    oooo",
"    XXXXXX  ooXX      oo  ......  oo  ..XXXXXX..    ..      ..XX",
"    XXXXXX  ooXX      oo  ......  oo  ..XXXXXX..    ..      ..XX",
"  ooXX      ....  oo    ....oo..    ooooXX....    ..oo      ooXX",
"  ooXX      ....  oo    ....oo..    ooooXX....    ..oo      ooXX",
"      XXXX    oooooo  ..  ooXX  ....XX  ..  oo    ooXX  ooXX    ",
"      XXXX    oooooo  ..  ooXX  ....XX  ..  oo    ooXX  ooXX    ",
"  ooXXXX      oo  ....  ooXXXXooXXXX      oo          XXXXXX    ",
"  ooXXXX      oo  ....  ooXXXXooXXXX      oo          XXXXXX    "
};
