/* XPM */
static char *result[] = {
/* columns rows colors chars-per-pixel */
"64 64 10 1 ",
"  c black",
". c #50381D",
"X c #7A5B3A",
"o c #9D7D59",
"O c #198E00",
"+ c #2FCE0D",
"@ c #8C8C2A",
"# c #BDBD3B",
"$ c #DEDE0F",
"% c #FFFF54",
/* pixels */
"%%%%OO                                                          ",
"%%%%OO                                                          ",
"%%OOOO  %%  %%  %%  %%%%  %%  ##%%%%    %%  %%  ##%%  %%  ##%%  ",
"%%OOOO  %%  %%  %%  %%%%  %%  ##%%%%    %%  %%  ##%%  %%  ##%%  ",
"$$OO    ##  ##%%%%  ##%%  %%  @@##%%    %%%%##  ##@@  %%  @@##  ",
"$$OO    ##  ##%%%%  ##%%  %%  @@##%%    %%%%##  ##@@  %%  @@##  ",
"$$OO  ##%%  @@##%%  ##@@%%##  @@@@##    %%##@@  @@@@%%%%  %%@@  ",
"$$OO  ##%%  @@##%%  ##@@%%##  @@@@##    %%##@@  @@@@%%%%  %%@@  ",
"OOOO          XX%%  %%oo%%@@  oo%%        oo##  %%XX%%%%  oo%%  ",
"OOOO          XX%%  %%oo%%@@  oo%%        oo##  %%XX%%%%  oo%%  ",
"OOOO            XX  %%XXoo    ##%%  OO      XX  %%XXXX    %%    ",
"OOOO            XX  %%XXoo    ##%%  OO      XX  %%XXXX    %%    ",
"OO    %%    %%##%%%%%%%%%%  @@%%        %%%%##%%%%%%%%  %%##  OO",
"OO    %%    %%##%%%%%%%%%%  @@%%        %%%%##%%%%%%%%  %%##  OO",
"    ##%%      @@##%%  oo%%%%@@@@  %%%%    ##%%##  oo%%%%##@@  %%",
"    ##%%      @@##%%  oo%%%%@@@@  %%%%    ##%%##  oo%%%%##@@  %%",
"  %%%%    %%  @@@@%%  oooo##@@@@    %%    ######  oooo##@@@@  $$",
"  %%%%    %%  @@@@%%  oooo##@@@@    %%    ######  oooo##@@@@  $$",
"  ####          oo##%%XX@@####              oo##%%oooo%%@@    OO",
"  ####          oo##%%XX@@####              oo##%%oooo%%@@    OO",
"  @@@@  %%        %%%%XXoo@@    $$    %%      ####XXoo%%    OO++",
"  @@@@  %%        %%%%XXoo@@    $$    %%      ####XXoo%%    OO++",
"        ##%%  %%    %%XX..            ##%%  %%  %%XXXX          ",
"        ##%%  %%    %%XX..            ##%%  %%  %%XXXX          ",
"    %%  ####  ##      ooXX    ##  %%  @@##  ##%%  XX..  ##@@##  ",
"    %%  ####  ##      ooXX    ##  %%  @@##  ##%%  XX..  ##@@##  ",
"  %%%%  %%oo  @@##%%  oooo    ##@@%%  @@@@  ####  XX..  %%  @@  ",
"  %%%%  %%oo  @@##%%  oooo    ##@@%%  @@@@  ####  XX..  %%  @@  ",
"  ##%%  %%XXoo##%%##  XXoo      @@%%  ##%%%%%%    ooXX  %%      ",
"  ##%%  %%XXoo##%%##  XXoo      @@%%  ##%%%%%%    ooXX  %%      ",
"  oo%%  ##XX..%%  oo  XX    @@@@oo%%  %%oo%%##      XX  ##%%  ++",
"  oo%%  ##XX..%%  oo  XX    @@@@oo%%  %%oo%%##      XX  ##%%  ++",
"    oo  ##....%%%%%%  XX  @@@@@@  oo  %%XXoo##  %%  XX        OO",
"    oo  ##....%%%%%%  XX  @@@@@@  oo  %%XXoo##  %%  XX        OO",
"  %%####%%%%##%%##@@  XX      ##%%%%%%%%XXoo  ##%%  XX          ",
"  %%####%%%%##%%##@@  XX      ##%%%%%%%%XXoo  ##%%  XX          ",
"  ##%%##  XX####@@    ..XX    @@####%%  XXXX####%%  XX    %%%%  ",
"  ##%%##  XX####@@    ..XX    @@####%%  XXXX####%%  XX    %%%%  ",
"  ####%%  ..oo##    ....XX      @@@@##  XXXX##%%    ..          ",
"  ####%%  ..oo##    ....XX      @@@@##  XXXX##%%    ..          ",
"    XX@@%%XX@@%%    ......XX      oo@@%%oo%%##%%  ....XX  %%$$OO",
"    XX@@%%XX@@%%    ......XX      oo@@%%oo%%##%%  ....XX  %%$$OO",
"OO    ##%%XX@@%%                    @@%%oo####              OOOO",
"OO    ##%%XX@@%%                    @@%%oo####              OOOO",
"OO$$    %%oo##    @@####    %%  OO    ##XX##      @@@@  %%    OO",
"OO$$    %%oo##    @@####    %%  OO    ##XX##      @@@@  %%    OO",
"OO    %%  oooo      @@@@  %%##      %%  XXoo      @@    %%##    ",
"OO    %%  oooo      @@@@  %%##      %%  XXoo      @@    %%##    ",
"OO  ##%%  ..oo  %%        %%@@    @@%%  XXXX  %%        %%%%##  ",
"OO  ##%%  ..oo  %%        %%@@    @@%%  XXXX  %%        %%%%##  ",
"OO  %%    XX..  %%    OO  ##      %%    ..XX  ##    OO    ##@@  ",
"OO  %%    XX..  %%    OO  ##      %%    ..XX  ##    OO    ##@@  ",
"          XXXX  @@%%      ##@@          ....  ##%%  OO%%        ",
"          XXXX  @@%%      ##@@          ....  ##%%  OO%%        ",
"  %%##    XXXX        @@@@####  ##%%    XXXX        OO    ##%%  ",
"  %%##    XXXX        @@@@####  ##%%    XXXX        OO    ##%%  ",
"  ##      ..XX                  %%      XXXX            @@##%%  ",
"  ##      ..XX                  %%      XXXX            @@##%%  ",
"    %%##  ..XX    %%##            %%    ..XX    ##%%            ",
"    %%##  ..XX    %%##            %%    ..XX    ##%%            ",
"  @@@@    ..oo            @@##        ......          OO%%$$OOOO",
"  @@@@    ..oo            @@##        ......          OO%%$$OOOO",
"        ......XX  ++++OO        $$$$  ........  OOOOOO$$$$$$OOOO",
"        ......XX  ++++OO        $$$$  ........  OOOOOO$$$$$$OOOO"
};
